<?xml version="1.0" standalone="no"?>
<!DOCTYPE svg PUBLIC "-//W3C//DTD SVG 20010904//EN"
 "http://www.w3.org/TR/2001/REC-SVG-20010904/DTD/svg10.dtd">
<svg version="1.0" xmlns="http://www.w3.org/2000/svg"
 width="1024.000000pt" height="1024.000000pt" viewBox="0 0 1024.000000 1024.000000"
 preserveAspectRatio="xMidYMid meet">
<metadata>
Created by potrace 1.14, written by Peter Selinger 2001-2017
</metadata>
<g transform="translate(0.000000,1024.000000) scale(0.100000,-0.100000)"
fill="#000000" stroke="none">
<path d="M2310 9760 l0 -270 130 0 130 0 0 -245 0 -245 -290 0 -290 0 0 -140
0 -140 160 0 160 0 0 -400 0 -401 -157 3 -158 3 -3 283 -2 282 -285 0 -285 0
0 250 0 250 -435 -2 -436 -3 -2 -660 -2 -660 -152 -3 -153 -3 0 921 0 920 510
0 510 0 0 -130 0 -130 223 -2 222 -3 3 -110 c1 -60 7 -112 13 -116 5 -3 67 -5
137 -3 l127 2 3 136 3 135 -143 3 -143 3 -3 112 -3 113 -216 2 -217 3 -2 110
c-1 61 -3 118 -3 128 -1 16 -30 17 -513 15 l-513 -3 -5 -123 -5 -124 -95 -3
c-52 -1 -103 -3 -112 -4 -17 -1 -18 -52 -18 -926 l0 -925 115 0 115 0 1 -77
c0 -43 1 -103 1 -133 l1 -55 -117 -3 -116 -3 0 -464 0 -465 120 0 120 0 0
-145 0 -145 150 0 150 0 0 -155 0 -155 53 0 c28 -1 136 0 239 0 l187 1 3 -158
3 -158 118 -3 117 -3 1 -117 c1 -64 2 -130 3 -147 l1 -30 360 0 360 0 3 -157
3 -158 159 0 160 0 0 165 0 165 -155 0 -155 0 0 145 0 144 158 3 157 3 3 153
3 152 124 0 125 0 0 -310 0 -310 123 0 124 0 6 -257 c4 -141 7 -334 7 -430 0
-158 -2 -173 -17 -174 -10 -1 -66 -2 -125 -3 l-108 -1 0 273 0 272 -135 0
-135 0 0 -145 0 -145 -437 -2 -437 -3 -3 -368 -4 -367 120 0 c66 0 126 -3 135
-6 13 -5 16 -27 16 -135 l0 -129 440 0 440 0 0 135 0 135 120 0 119 0 3 118 3
117 133 3 132 3 0 -121 0 -120 130 0 130 0 0 -130 0 -130 140 0 140 0 0 -225
0 -224 143 -3 142 -3 3 -132 3 -133 137 -1 c75 -1 144 -2 152 -3 13 -1 15 -59
15 -458 l0 -458 -152 0 -153 0 0 -265 0 -265 -282 -2 -283 -3 -3 -132 -3 -132
-132 -3 -132 -3 -3 -128 -3 -127 -129 0 -130 0 0 -120 0 -120 -125 0 -125 0 0
-345 0 -345 2565 0 2565 0 0 345 0 344 -137 3 -138 3 -3 117 -3 118 -124 0
-125 0 0 125 0 125 -145 0 -145 0 0 38 c-1 20 -2 80 -3 132 l-2 95 -288 3
-288 2 3 93 c1 50 1 170 0 265 l-2 172 -140 0 -140 0 -2 448 c-2 246 -1 455 1
465 3 15 18 17 147 17 l143 0 3 127 3 128 153 3 152 3 0 224 0 225 130 0 130
0 0 135 0 134 143 3 142 3 3 118 3 118 127 -3 127 -3 2 -80 c1 -44 2 -94 2
-112 l1 -32 133 -3 132 -3 3 -138 3 -137 429 0 430 0 0 135 0 135 135 0 135 0
0 365 0 365 -435 0 -435 0 0 155 0 155 155 0 155 0 0 166 0 165 365 -7 365 -7
0 146 0 147 115 0 115 0 2 161 3 160 240 2 240 2 3 153 3 152 144 0 145 0 0
145 0 144 -147 3 -148 3 -3 458 -2 457 158 0 159 0 6 -307 c4 -170 7 -379 7
-465 l0 -158 100 0 100 0 0 470 0 469 -102 3 -103 3 0 130 0 130 103 3 102 3
0 924 -1 925 -104 0 -104 0 -3 133 -3 132 -518 0 -517 0 0 -132 0 -133 -212 0
-213 0 0 -112 0 -113 -152 -3 -153 -3 0 -146 0 -146 -217 6 c-120 4 -246 7
-280 7 l-63 0 0 245 0 245 125 0 125 0 0 270 0 270 -2820 0 -2820 0 0 -270z
m4828 -26 l292 -6 0 -108 c0 -60 -3 -115 -6 -124 -5 -14 -27 -16 -140 -16 -74
0 -134 -3 -134 -7 -1 -5 -1 -50 -2 -100 l0 -93 -2164 0 -2164 0 0 83 c0 45 -4
98 -10 117 -10 38 -22 255 -14 263 7 6 3980 -2 4342 -9z m2888 -248 c1 0 3
-410 5 -911 l4 -910 -157 -3 -158 -3 -2 663 -3 663 -432 3 -433 2 0 -245 0
-245 -290 0 -290 0 0 -290 0 -290 -160 0 -160 0 0 400 0 400 160 0 160 0 0
140 0 140 145 0 145 0 0 120 0 120 215 0 215 0 0 130 0 129 518 -6 c284 -3
518 -6 518 -7z m-3478 -486 l862 0 0 -970 0 -970 -130 0 -130 0 0 -595 0 -595
-120 0 -120 0 0 -160 0 -160 -145 0 -145 0 -1 -367 c0 -203 0 -412 1 -465 l2
-97 -159 -3 -158 -3 -3 -237 -2 -238 -140 0 -140 0 0 -120 0 -120 -345 0 -345
0 0 -145 0 -145 -420 0 -419 0 -3 146 -3 146 -182 -2 -182 -1 -3 123 -3 123
-107 0 -108 -1 0 107 0 107 38 5 c31 4 125 4 235 -2 l27 -1 0 -105 0 -105 553
2 552 3 -3 105 c-2 58 -4 106 -5 107 -1 1 -251 3 -555 4 l-552 3 0 118 0 118
-145 0 -145 0 -2 28 c-1 15 -2 61 -3 102 0 41 -2 94 -3 118 l-2 42 -135 0
-135 0 0 -145 0 -145 135 0 136 0 -3 -117 -3 -118 -132 -3 c-73 -1 -134 -1
-134 0 -1 2 -4 57 -8 123 l-6 120 -132 -4 -133 -3 0 156 0 155 133 3 132 3 3
158 3 157 -103 0 c-57 0 -120 3 -140 6 l-38 7 0 303 0 304 -97 2 c-54 0 -102
2 -108 2 -34 4 -35 15 -35 312 l0 294 -125 0 -125 0 -2 173 -3 172 -29 3 -29
4 6 256 c4 141 7 632 7 1089 l0 833 1143 3 c628 2 1279 2 1447 0 168 -1 693
-2 1168 -3z m-5518 -410 l0 -130 115 0 115 0 0 -130 0 -130 220 0 220 0 2
-267 3 -268 138 -3 137 -3 0 -134 0 -135 165 0 165 0 0 -760 0 -760 -305 0
-305 0 0 145 0 145 -210 0 -209 0 -3 153 -3 152 -127 3 -128 3 0 -151 0 -150
-235 0 -235 0 0 145 0 145 -155 0 -155 0 0 460 0 460 155 0 155 0 0 -460 0
-460 155 0 155 0 -2 468 -3 467 -152 3 -153 3 0 129 0 130 150 0 150 0 0 530
0 530 90 0 90 0 0 -130z m8400 -400 l0 -530 140 0 140 0 0 -130 0 -130 -140 0
-140 0 0 -470 0 -469 138 -3 137 -3 3 -142 3 -143 -236 0 -235 0 0 145 0 145
-125 0 -125 0 0 -150 0 -150 -57 -1 c-32 0 -129 0 -217 1 l-158 1 3 -148 4
-148 -307 -3 -308 -2 -1 522 c-1 288 -2 632 -3 766 l-3 242 163 0 163 0 3 131
3 131 140 2 140 1 3 272 2 273 218 2 217 3 3 128 3 127 109 0 110 0 0 63 c0
34 3 92 7 130 l6 67 98 0 99 0 0 -530z m-1486 -2338 c2 -4 6 -143 8 -307 l3
-300 -106 -5 c-105 -5 -106 -5 -98 -27 5 -13 15 -23 23 -23 8 0 18 -5 22 -12
4 -6 3 -8 -4 -4 -6 3 -14 1 -18 -6 -4 -7 -3 -10 1 -5 5 4 18 1 30 -7 12 -8 27
-11 34 -6 9 5 10 10 2 14 -6 4 -11 2 -11 -4 0 -6 -4 -8 -10 -5 -19 12 -10 24
14 19 19 -3 24 0 22 13 -2 10 -1 12 1 6 3 -7 10 -13 17 -13 20 0 15 -29 -6
-36 -22 -6 -24 -30 -4 -37 10 -4 13 -1 10 8 -3 7 3 22 13 32 19 19 19 19 36
-3 25 -34 22 -47 -10 -39 -27 6 -27 6 -8 -8 11 -9 23 -13 26 -11 4 2 7 -6 6
-19 0 -12 3 -48 7 -79 l8 -58 -132 0 -133 0 7 -280 7 -280 -135 0 -136 0 0
435 0 435 130 0 130 0 0 310 0 310 124 0 c69 0 127 -4 130 -8z m-123 -641
c-11 -7 -11 -10 0 -14 10 -4 9 -6 -3 -6 -20 -1 -25 25 -5 32 18 6 24 -3 8 -12z
m-5511 -1071 l0 -230 -298 0 -299 0 -6 167 c-4 91 -7 195 -7 230 l0 63 305 0
305 0 0 -230z m6260 0 l0 -230 -435 0 -435 0 0 131 c0 76 4 128 9 125 5 -4 11
-1 13 5 3 9 10 9 27 -1 18 -9 25 -9 31 0 5 8 13 9 26 3 11 -6 45 -11 77 -12
l58 -3 -1 79 c-1 43 -1 90 -1 106 l1 27 315 0 315 0 0 -230z m-819 173 c13
-16 12 -17 -3 -4 -10 7 -18 15 -18 17 0 8 8 3 21 -13z m9 -43 c8 -5 11 -10 5
-10 -5 0 -17 5 -25 10 -8 5 -10 10 -5 10 6 0 17 -5 25 -10z m-43 -32 c-3 -8
-6 -5 -6 6 -1 11 2 17 5 13 3 -3 4 -12 1 -19z m28 -28 c-3 -4 2 -10 9 -13 8
-3 17 -2 20 4 2 5 3 4 2 -2 -3 -17 -33 -19 -46 -3 -13 15 -4 38 11 28 5 -3 7
-9 4 -14z m-30 -20 c3 -5 1 -10 -4 -10 -6 0 -11 5 -11 10 0 6 2 10 4 10 3 0 8
-4 11 -10z m-2203 -1810 c-1 -173 2 -334 5 -358 l6 -42 103 0 104 0 1 -112 c1
-62 1 -116 0 -120 0 -5 4 -8 10 -8 5 0 8 -4 4 -10 -3 -5 17 -9 50 -9 l55 1 1
47 c3 93 7 143 13 148 3 4 7 -16 8 -43 1 -44 6 -137 7 -156 1 -5 33 -8 71 -8
l71 0 -3 -258 -3 -259 -662 -7 c-364 -3 -770 -3 -902 0 l-241 7 0 384 0 383
149 0 c138 0 150 2 177 22 15 13 25 18 21 11 -4 -6 2 -13 14 -16 17 -5 20 -2
16 14 -3 10 -2 19 2 19 4 0 17 9 28 19 20 19 21 19 26 2 3 -12 -2 -17 -17 -17
-14 1 -21 -5 -22 -19 -1 -17 6 -20 38 -21 21 -1 38 3 38 8 0 5 -4 6 -10 3 -5
-3 -10 -2 -10 4 0 6 -6 8 -14 5 -8 -3 -17 -1 -21 5 -3 7 0 8 9 5 9 -3 18 0 21
8 6 15 35 21 35 6 0 -4 -5 -8 -10 -8 -6 0 -5 -8 2 -20 12 -18 13 -19 20 -2 6
16 7 16 7 0 1 -10 5 -18 9 -18 5 0 9 43 9 97 1 71 -3 100 -13 111 -12 12 -17
12 -32 1 -12 -10 -11 -7 3 10 l20 24 -22 -12 c-26 -13 -36 -14 -28 -2 7 12
-25 30 -43 24 -6 -3 -10 -9 -6 -14 3 -5 -2 -9 -11 -9 -9 0 -13 -5 -10 -10 4
-6 11 -8 16 -5 12 8 6 -32 -7 -42 -5 -5 -6 -4 -2 1 13 15 -11 45 -32 41 -11
-2 -19 -1 -19 3 4 28 -3 41 -18 36 -16 -5 -16 -4 0 6 10 7 28 9 40 6 20 -5 20
-4 5 8 -10 7 -15 16 -11 20 4 4 0 4 -10 0 -9 -3 -17 -10 -17 -15 0 -5 -4 -9
-10 -9 -17 0 -11 48 8 59 11 7 13 10 3 11 -8 0 -11 7 -8 20 3 11 2 20 -2 20
-4 0 -8 76 -9 170 l-2 170 187 3 c104 1 329 2 501 2 l314 0 0 -315z m-874
-191 c-3 -8 -7 -3 -11 10 -4 17 -3 21 5 13 5 -5 8 -16 6 -23z m-113 -8 c3 -5
2 -12 -3 -15 -5 -3 -9 1 -9 9 0 17 3 19 12 6z m183 -36 c-3 -3 -9 2 -12 12 -6
14 -5 15 5 6 7 -7 10 -15 7 -18z m-129 -109 c9 -10 8 -15 -3 -19 -11 -4 -13
-1 -9 10 5 12 3 14 -7 8 -9 -5 -11 -4 -6 3 9 15 11 15 25 -2z m-377 -988 l3
-123 902 -3 902 -2 3 122 3 123 200 2 c144 1 202 -2 207 -10 6 -9 8 -9 8 0 0
9 19 12 60 12 33 -1 57 -5 54 -10 -3 -5 -11 -6 -17 -3 -7 4 -9 3 -4 -1 12 -14
47 -13 47 2 0 7 5 13 11 13 5 0 8 -4 5 -9 -3 -5 2 -8 12 -7 9 0 16 -5 14 -12
-1 -8 2 -11 8 -7 6 4 9 13 7 19 -4 9 10 13 45 15 37 1 56 -4 76 -20 15 -12 28
-16 30 -10 2 6 13 11 25 11 18 0 19 2 7 10 -11 7 -3 9 27 7 l43 -2 0 -122 0
-123 140 0 139 0 3 -122 3 -123 128 -3 127 -3 0 -139 0 -140 -132 -1 c-73 0
-323 0 -555 1 l-423 1 0 -126 0 -125 -1745 0 -1745 0 0 260 0 260 125 -1 c68
0 129 2 135 6 6 4 10 54 10 125 l0 119 133 3 132 3 3 128 3 127 419 0 419 0 3
-122z m2582 111 c-3 -5 -11 -9 -19 -9 -8 0 -16 4 -19 9 -3 5 5 9 19 9 14 0 22
-4 19 -9z"/>
<path d="M5697 4893 c-4 -3 -7 -66 -7 -140 l0 -133 -180 0 -180 0 0 -130 0
-130 228 2 227 3 3 128 3 128 157 -1 c86 -1 201 -1 255 -1 l98 1 -3 138 -3
137 -296 3 c-162 1 -298 -1 -302 -5z"/>
<path d="M7702 5205 c1 -24 6 -35 16 -35 13 0 13 -3 -1 -18 -18 -20 -24 -57
-7 -47 5 3 7 12 4 20 -4 10 3 18 20 25 26 10 26 10 9 37 -10 15 -17 28 -15 30
7 9 0 23 -13 23 -10 0 -14 -10 -13 -35z m24 0 c1 -8 -1 -17 -5 -19 -4 -3 -7 6
-7 19 0 25 8 25 12 0z"/>
<path d="M7916 5127 c3 -10 9 -15 12 -12 3 3 0 11 -7 18 -10 9 -11 8 -5 -6z"/>
<path d="M7755 5110 c3 -5 8 -10 11 -10 2 0 4 5 4 10 0 6 -5 10 -11 10 -5 0
-7 -4 -4 -10z"/>
<path d="M7809 5091 c7 -5 10 -14 7 -20 -4 -6 -1 -11 6 -11 8 0 14 9 14 20 0
14 -7 20 -21 20 -15 0 -17 -2 -6 -9z"/>
<path d="M7894 5068 c4 -25 23 -51 30 -40 3 5 -1 12 -9 16 -8 3 -12 12 -9 21
3 8 2 15 -4 15 -6 0 -9 -6 -8 -12z"/>
<path d="M7855 5059 c-11 -16 -1 -19 13 -3 7 8 8 14 3 14 -5 0 -13 -5 -16 -11z"/>
<path d="M7761 5034 c0 -11 3 -14 6 -6 3 7 2 16 -1 19 -3 4 -6 -2 -5 -13z"/>
<path d="M7809 5033 c-13 -16 -12 -17 4 -4 16 13 21 21 13 21 -2 0 -10 -8 -17
-17z"/>
<path d="M4550 2220 c0 -13 18 -22 24 -11 3 5 -1 11 -9 15 -8 3 -15 1 -15 -4z"/>
<path d="M6662 1151 c4 -13 18 -16 19 -4 0 4 -5 9 -11 12 -7 2 -11 -2 -8 -8z"/>
<path d="M6438 1133 c7 -3 16 -2 19 1 4 3 -2 6 -13 5 -11 0 -14 -3 -6 -6z"/>
<path d="M6810 1091 c0 -6 4 -13 10 -16 6 -3 7 1 4 9 -7 18 -14 21 -14 7z"/>
<path d="M6566 1041 c-4 -6 -1 -11 6 -11 9 0 9 -3 -2 -10 -9 -6 -10 -10 -3
-10 17 0 23 14 14 29 -6 9 -11 10 -15 2z"/>
<path d="M6655 1030 c10 -11 20 -20 23 -20 3 0 -3 9 -13 20 -10 11 -20 20 -23
20 -3 0 3 -9 13 -20z"/>
<path d="M6777 1034 c2 -7 11 -10 19 -7 19 7 18 10 -5 16 -13 3 -18 1 -14 -9z"/>
<path d="M6720 1030 c-13 -8 -12 -10 3 -10 9 0 17 5 17 10 0 12 -1 12 -20 0z"/>
<path d="M6475 1010 c-3 -5 -1 -10 4 -10 6 0 11 5 11 10 0 6 -2 10 -4 10 -3 0
-8 -4 -11 -10z"/>
<path d="M6584 998 l-19 -23 23 19 c12 11 22 21 22 23 0 8 -8 2 -26 -19z"/>
<path d="M6645 999 c-4 -6 -5 -12 -2 -15 2 -3 7 2 10 11 7 17 1 20 -8 4z"/>
<path d="M6757 993 c3 -7 6 -13 8 -13 2 0 5 6 8 13 3 8 -1 14 -8 14 -7 0 -11
-6 -8 -14z"/>
<path d="M6696 987 c3 -10 9 -15 12 -12 3 3 0 11 -7 18 -10 9 -11 8 -5 -6z"/>
<path d="M6789 992 c-1 -4 -1 -10 0 -14 0 -5 -4 -8 -9 -8 -6 0 -5 -8 2 -20 9
-14 22 -19 45 -17 29 2 31 4 16 15 -10 7 -12 12 -4 12 8 0 7 6 -5 17 -17 18
-43 26 -45 15z m34 -38 c-6 -17 -25 -14 -31 6 -3 7 0 10 7 6 6 -4 11 -2 11 4
0 6 4 9 10 5 5 -3 7 -12 3 -21z"/>
<path d="M6531 974 c0 -11 3 -14 6 -6 3 7 2 16 -1 19 -3 4 -6 -2 -5 -13z"/>
<path d="M6441 964 c0 -11 3 -14 6 -6 3 7 2 16 -1 19 -3 4 -6 -2 -5 -13z"/>
<path d="M6665 961 c-18 -7 -17 -8 7 -13 19 -4 25 -1 21 9 -3 7 -6 13 -7 12 0
0 -10 -4 -21 -8z"/>
<path d="M6745 960 c-3 -5 -1 -10 4 -10 6 0 11 5 11 10 0 6 -2 10 -4 10 -3 0
-8 -4 -11 -10z"/>
<path d="M6346 947 c3 -10 9 -15 12 -12 3 3 0 11 -7 18 -10 9 -11 8 -5 -6z"/>
<path d="M6465 950 c-3 -6 1 -7 9 -4 18 7 21 14 7 14 -6 0 -13 -4 -16 -10z"/>
<path d="M10080 80 l0 -80 80 0 80 0 0 80 0 80 -80 0 -80 0 0 -80z"/>
</g>
</svg>
